<?xml version="1.0" standalone="no"?><!DOCTYPE svg PUBLIC "-//W3C//DTD SVG 1.1//EN" "http://www.w3.org/Graphics/SVG/1.1/DTD/svg11.dtd"><svg t="1742525376654" class="icon" viewBox="0 0 1024 1024" version="1.1" xmlns="http://www.w3.org/2000/svg" p-id="3720" xmlns:xlink="http://www.w3.org/1999/xlink" width="200" height="200"><path d="M440.8 663.3c-4.5 0-8.8-1-12.8-3.3-8.5-4.7-13.9-13.6-13.9-23.4V387.4c0-9.7 5.4-18.7 13.9-23.4s19-4.3 27.2 0.9l195.9 124.6c7.7 4.8 12.3 13.4 12.3 22.5s-4.7 17.7-12.3 22.5L455.2 659.1c-4.5 2.9-9.4 4.2-14.4 4.2zM467.5 436v152l119.4-76-119.4-76z" p-id="3721" fill="#ffffff"></path><path d="M512 894.8c-211.1 0-382.8-171.7-382.8-382.8S300.9 129.2 512 129.2 894.8 300.9 894.8 512 723.1 894.8 512 894.8z m0-712.2c-181.7 0-329.4 147.8-329.4 329.4S330.3 841.4 512 841.4 841.4 693.7 841.4 512 693.7 182.6 512 182.6z" p-id="3722" fill="#ffffff"></path></svg>